<svg id="artwork" xmlns="http://www.w3.org/2000/svg" viewBox="0 0 229.51 39.71"><defs><style>.cls-1{fill:#f29c1e;}.cls-2{fill:#fdc010;}.cls-3{fill:#0187d0;}</style></defs><polygon class="cls-1" points="203.33 19.96 209.03 13.28 203.91 5.79 194.67 5.79 203.33 19.96"/><polygon class="cls-2" points="220.34 0 203.33 19.97 207.04 26.16 229.51 0 220.34 0"/><path class="cls-3" d="M110.82,5.79H98V39.13h12.67c12,0,19-7.15,19-16.77v-.09c0-9.62-6.91-16.48-18.82-16.48m9.34,16.72c0,5.38-3.67,8.43-9.19,8.43H107.2V14H111c5.52,0,9.19,3.1,9.19,8.43Z"/><polygon class="cls-3" points="83.74 23.41 70.02 5.79 61.4 5.79 61.4 39.13 70.55 39.13 70.55 20.84 84.79 39.13 92.89 39.13 92.89 5.79 83.74 5.79 83.74 23.41"/><polygon class="cls-3" points="207.04 26.16 215.68 39.12 226.78 39.12 213.14 19.06 207.04 26.16"/><polygon class="cls-3" points="9.24 5.79 0 5.79 0 39.13 25.38 39.13 25.38 31.03 9.24 31.03 9.24 5.79"/><polygon class="cls-3" points="38.32 25.98 54.33 25.98 54.33 18.7 38.32 18.7 38.32 13.65 55.99 13.65 55.99 5.79 29.18 5.79 29.18 39.13 56.24 39.13 56.24 31.27 38.32 31.27 38.32 25.98"/><polyline class="cls-3" points="194.67 5.79 194.68 5.79 194.67 5.78 194.67 39.12 203.89 39.12 203.86 30.03 207.04 26.16 203.33 19.96"/><path class="cls-3" d="M179.08,18.37c-4.62-1.06-5.77-1.73-5.77-3.25V15c0-1.19,1.1-2.15,3.34-2.15A16.72,16.72,0,0,1,186,16.17l4.62-6.53c-3.62-2.9-8-4.42-13.71-4.42-8,0-12.91,4.47-12.91,10.66V16c0,6.86,5.48,8.86,12.57,10.48,4.53,1,5.62,1.81,5.62,3.19v.1c0,1.42-1.33,2.28-3.81,2.28a17.15,17.15,0,0,1-10.81-4l-5.14,6.15A23.32,23.32,0,0,0,178,39.71c8.09,0,13.48-4.06,13.48-10.86v-.11c0-6.23-4.76-8.71-12.43-10.37"/><polygon class="cls-3" points="141.62 25.98 157.62 25.98 157.62 18.7 141.62 18.7 141.62 13.65 159.29 13.65 159.29 5.79 132.47 5.79 132.47 39.13 159.53 39.13 159.53 31.27 141.62 31.27 141.62 25.98"/></svg>